<svg xmlns="http://www.w3.org/2000/svg" viewBox="0 0 70 70"><defs><style>.a{fill:none;}.b{fill:#fff;}</style></defs><rect class="a" width="70" height="70" rx="5"/><path class="b" d="M17.58,57.5h-.06a1.12,1.12,0,0,1-1.05-1.18,14,14,0,0,1,1.89-6.11,1.14,1.14,0,0,1,.83-.51,1.11,1.11,0,0,1,.9.34c7,7.43,22.58.33,23.71-.2,7.1-4.77,11.08-10.45,11.5-16.44a14.45,14.45,0,0,0-1.44-7.57l0-.07c-1.46-3-3.38-4.8-5.72-5.33-4.36-1-8.86,2.55-8.9,2.58a1.07,1.07,0,0,1-.91.22,1.1,1.1,0,0,1-.75-.56c-1.35-2.54-.24-8.58-.11-9.26a1.1,1.1,0,0,1,1.29-.89,1.13,1.13,0,0,1,.88,1.31,25.29,25.29,0,0,0-.45,6.51c1.91-1.17,5.62-3,9.43-2.1,3,.69,5.45,2.88,7.21,6.51.51.95,7.44,14.77-10.84,27a.57.57,0,0,1-.13.08c-.7.34-16.53,7.9-25.21.8a11.47,11.47,0,0,0-.93,3.81A1.11,1.11,0,0,1,17.58,57.5Z"/><path class="b" d="M13.63,57.5a1.11,1.11,0,0,1-1.1-1c-.31-4.3,2-8.49,2.7-9.73a8.53,8.53,0,0,1,5.74-9c5.51-2.25,8.46-8.08,8.49-8.14a1.1,1.1,0,0,1,1.48-.5,1.13,1.13,0,0,1,.5,1.5c-.14.27-3.35,6.67-9.68,9.23l-.07,0a6.35,6.35,0,0,0-4.22,7,1.15,1.15,0,0,1-.17.77s-2.88,4.45-2.57,8.69a1.12,1.12,0,0,1-1,1.2Z"/><path class="b" d="M39.2,36.49a1.1,1.1,0,0,1-.91-.48c-6.87-10.15-4.9-22.08-4.81-22.58a1.1,1.1,0,1,1,2.17.38c0,.12-1.89,11.56,4.46,20.93a1.13,1.13,0,0,1-.29,1.56A1.1,1.1,0,0,1,39.2,36.49Z"/><path class="b" d="M30.45,26.91a1.13,1.13,0,0,1-.53-.14l-6.69-3.65a1.12,1.12,0,0,1-.45-1.51,1.1,1.1,0,0,1,1.5-.46l4.77,2.61a71.38,71.38,0,0,1,.3-10.25,1.11,1.11,0,1,1,2.2.22c0,.09-.83,8.37,0,11.8a1.1,1.1,0,0,1-.4,1.14A1.06,1.06,0,0,1,30.45,26.91Z"/><path class="b" d="M50.18,29.86a1.11,1.11,0,0,1-1.1-1c-.17-1.73-.71-2.87-1.59-3.39-1.44-.85-3.53.05-3.55.06A1.1,1.1,0,0,1,42.48,25,1.13,1.13,0,0,1,43,23.47c.12,0,3.13-1.38,5.56.05,1.53.91,2.43,2.62,2.68,5.11a1.12,1.12,0,0,1-1,1.23Z"/><path class="b" d="M41.26,47.77a1.11,1.11,0,0,1-1.1-1l-.35-3.39a1.11,1.11,0,1,1,2.2-.23l.35,3.39a1.12,1.12,0,0,1-1,1.23Z"/><path class="b" d="M48.46,42.29a1.11,1.11,0,0,1-.5-.12l-2.83-1.48a1.13,1.13,0,0,1-.48-1.51,1.1,1.1,0,0,1,1.49-.48L49,40.18a1.12,1.12,0,0,1-.51,2.11Z"/><path class="b" d="M46.06,46.64a1.12,1.12,0,0,1-.87-.43l-2.57-3.3a1.12,1.12,0,0,1,.18-1.57,1.09,1.09,0,0,1,1.55.18l2.58,3.3a1.13,1.13,0,0,1-.18,1.57A1.09,1.09,0,0,1,46.06,46.64Z"/><ellipse class="b" cx="41.43" cy="39.08" rx="2.06" ry="2.09"/></svg>