<svg xmlns="http://www.w3.org/2000/svg" viewBox="0 0 70 70"><defs><style>.a{fill:none;}.b{fill:#fff;}</style></defs><rect class="a" width="70" height="70" rx="5"/><path class="b" d="M42.05,45.72A1.69,1.69,0,0,0,40.38,44H35a1.67,1.67,0,0,0-1.69,1.66l0,2.79a15.69,15.69,0,0,1,.13-29.87v3a1.91,1.91,0,0,0,1.92,1.93h4.89a1.91,1.91,0,0,0,1.94-1.91V14.47a1.41,1.41,0,0,0-.8-1.31l-.13-.05-.14,0a18,18,0,0,0-5.16-.77,16.1,16.1,0,0,0-1.67.07,18.37,18.37,0,0,0-13.19,7.35A18.86,18.86,0,0,0,17.4,31l0,14.92a.9.9,0,1,0,1.8,0V31a17.07,17.07,0,0,1,3.36-10.18,16.57,16.57,0,0,1,11.89-6.63c.53,0,1-.07,1.51-.07a16.65,16.65,0,0,1,4.46.65v6.82a.18.18,0,0,1-.19.16H35.38a.17.17,0,0,1-.17-.17l0-4.12a.91.91,0,0,0-.35-.71.9.9,0,0,0-.76-.17,17.49,17.49,0,0,0-.15,34,.9.9,0,0,0,1.12-.87V45.82h5.15v4.06a.4.4,0,0,0,0,.11v1.57a1.29,1.29,0,0,1-1.34,1.28H18.24a.86.86,0,0,0-.9.86,1,1,0,0,0,.89,1H38.89A3.14,3.14,0,0,0,42,51.57V49.89a.48.48,0,0,0,0-.12Zm8.43-9.4H28.6a.87.87,0,0,0-.9.86.94.94,0,0,0,.9.94H50.48a.85.85,0,0,0,.9-.84,1,1,0,0,0-.9-1"/><path class="b" d="M53.88,36.16a1.07,1.07,0,1,1-.21,2.13,1.07,1.07,0,0,1,.21-2.13"/><path class="b" d="M18.36,48.16a1.08,1.08,0,1,1-.21,2.14,1.08,1.08,0,0,1,.21-2.14"/><path class="b" d="M51.38,33.75H36.23a1.64,1.64,0,1,1,0-3.28H51.38a1.64,1.64,0,1,1,0,3.28"/><path class="b" d="M33.47,32a2.18,2.18,0,1,1-2.18-2.18A2.19,2.19,0,0,1,33.47,32"/></svg>