<svg xmlns="http://www.w3.org/2000/svg" viewBox="0 0 70 70"><defs><style>.a{fill:none;}.b{fill:#fff;}</style></defs><rect class="a" width="70" height="70" rx="5"/><path class="b" d="M27.46,24.44H22.34a.65.65,0,0,1,0-1.29h5.12a.65.65,0,0,1,0,1.29Z"/><path class="b" d="M27.11,57.34a5.47,5.47,0,0,1-5.46-5.47V24.34a2.09,2.09,0,0,1-1.45-2v-.88a2.09,2.09,0,0,1,2.09-2.08h9.65A2.09,2.09,0,0,1,34,21.48v.88a2.09,2.09,0,0,1-1.45,2V51.87A5.47,5.47,0,0,1,27.11,57.34ZM22.29,20.68a.8.8,0,0,0-.8.8v.88a.8.8,0,0,0,.8.8h.65V51.87a4.18,4.18,0,1,0,8.35,0V23.16h.65a.8.8,0,0,0,.8-.8v-.88a.8.8,0,0,0-.8-.8Z"/><path class="b" d="M24.6,38v13.9a2.52,2.52,0,0,0,5,0V36.72a6.15,6.15,0,0,1-3.86,1.36A6.45,6.45,0,0,1,24.6,38Z"/><path class="b" d="M42,33.75H38.54a.65.65,0,1,1,0-1.29H42a.65.65,0,1,1,0,1.29Z"/><path class="b" d="M43.31,57.34a5.48,5.48,0,0,1-5.47-5.47V33.65a2.1,2.1,0,0,1-1.44-2v-.87a2.1,2.1,0,0,1,2.09-2.09h9.64a2.1,2.1,0,0,1,2.09,2.09v.87a2.1,2.1,0,0,1-1.44,2V51.87A5.48,5.48,0,0,1,43.31,57.34ZM38.49,30a.8.8,0,0,0-.8.8v.87a.8.8,0,0,0,.8.8h.64V51.87a4.18,4.18,0,0,0,8.36,0V32.46h.64a.8.8,0,0,0,.8-.8v-.87a.8.8,0,0,0-.8-.8Z"/><path class="b" d="M40.8,47.27v4.6a2.51,2.51,0,0,0,5,0V46A6.13,6.13,0,0,1,42,47.39,5.57,5.57,0,0,1,40.8,47.27Z"/><path class="b" d="M28.69,15.36c0-.87-1.58-3-1.58-3s-1.57,2.15-1.57,3a1.58,1.58,0,1,0,3.15,0Z"/><circle class="b" cx="29.58" cy="23.94" r="0.71"/></svg>